# xmcd
#
# Track frame offsets:
# 150
# 12870
# 37282
# 81289
# 112524
# 146848
# 183339
# 221802
# 248630
# 289930
# 331402
#
# Disc length: 4744 seconds
#
#
# Revision: 0
# Processed by: cddbd v1.5.2PL0 Copyright (c) Steve Scherf et al.
# Submitted via: FreeRIP 2.96 
#
DISCID=9f12860b
DTITLE=Jamet, Nicole und Le Pezennec, Marie-Anne - Killmore ... was niemand wissen darf
DYEAR=2008
DGENRE=Speech
TTITLE0=01 Kilmore
TTITLE1=02 Kilmore
TTITLE2=03 Kilmore
TTITLE3=04 Kilmore
TTITLE4=05 Kilmore
TTITLE5=06 Kilmore
TTITLE6=07 Kilmore
TTITLE7=08 Kilmore
TTITLE8=09 Kilmore
TTITLE9=10 Kilmore
TTITLE10=11 Kilmore
EXTD=gelesen von Viola Sauer
EXTT0=
EXTT1=
EXTT2=
EXTT3=
EXTT4=
EXTT5=
EXTT6=
EXTT7=
EXTT8=
EXTT9=
EXTT10=
PLAYORDER=
